<?xml version="1.0" encoding="utf-8"?>
<!-- Generator: Adobe Illustrator 17.0.0, SVG Export Plug-In . SVG Version: 6.00 Build 0)  -->
<!DOCTYPE svg PUBLIC "-//W3C//DTD SVG 1.1//EN" "http://www.w3.org/Graphics/SVG/1.1/DTD/svg11.dtd">
<svg version="1.1" id="Capa_1" xmlns="http://www.w3.org/2000/svg" xmlns:xlink="http://www.w3.org/1999/xlink" x="0px" y="0px"
	 width="200px" height="200px" viewBox="3052.244 1378.689 200 200" enable-background="new 3052.244 1378.689 200 200"
	 xml:space="preserve">
<path fill="#FFFFFF" d="M3252.244,1395.997c0,9.559-7.749,17.308-17.308,17.308h-165.384c-9.559,0-17.308-7.749-17.308-17.308l0,0
	c0-9.559,7.749-17.308,17.308-17.308h165.384C3244.495,1378.689,3252.244,1386.438,3252.244,1395.997L3252.244,1395.997z"/>
<path fill="#FFFFFF" d="M3252.244,1561.382c0,9.559-7.749,17.308-17.308,17.308h-165.384c-9.559,0-17.308-7.749-17.308-17.308l0,0
	c0-9.559,7.749-17.308,17.308-17.308h165.384C3244.495,1544.074,3252.244,1551.823,3252.244,1561.382L3252.244,1561.382z"/>
<path fill="#FFFFFF" d="M3252.244,1478.689c0,9.559-7.749,17.308-17.308,17.308h-165.384c-9.559,0-17.308-7.749-17.308-17.308l0,0
	c0-9.559,7.749-17.308,17.308-17.308h165.384C3244.495,1461.382,3252.244,1469.13,3252.244,1478.689L3252.244,1478.689z"/>
</svg>
