<?xml version="1.0" encoding="utf-8"?>
<!-- Generator: Adobe Illustrator 17.0.0, SVG Export Plug-In . SVG Version: 6.00 Build 0)  -->
<!DOCTYPE svg PUBLIC "-//W3C//DTD SVG 1.1//EN" "http://www.w3.org/Graphics/SVG/1.1/DTD/svg11.dtd">
<svg version="1.1" id="Capa_1" xmlns="http://www.w3.org/2000/svg" xmlns:xlink="http://www.w3.org/1999/xlink" x="0px" y="0px"
	 width="40px" height="40px" viewBox="0 0 40 40" enable-background="new 0 0 40 40" xml:space="preserve">
<g>
	<path fill="#999999" d="M2.182,21.312c-1.568,1.622-1.486,5.551,0.833,7.259c2.319,1.708,5.207,1.197,7.04-0.431
		c1.833-1.629,3.719-4.091,5.785-4.529c2.066-0.438,3.91,0.228,5.926,1.389c2.016,1.161,4.748,3.215,7.305,1.841
		c2.557-1.374,3.555-5.224,1.839-8.771c-1.717-3.547-3.95-5.007-6.382-5.111c-2.432-0.104-6.675,1.674-9.514,3.456
		c-2.84,1.782-5.313,1.936-7.431,2.506C5.464,19.491,3.935,19.498,2.182,21.312"/>
	<path fill="#999999" d="M30.307,11.107c0.22,0.648-0.342,1.424-1.255,1.735c-0.913,0.311-1.832,0.037-2.053-0.61
		c-0.22-0.648,0.342-1.425,1.255-1.735C29.168,10.186,30.087,10.46,30.307,11.107"/>
	<path fill="#999999" d="M33.805,13.32c0.198,0.733-0.479,1.554-1.513,1.834c-1.034,0.28-2.032-0.088-2.231-0.821
		c-0.198-0.733,0.479-1.554,1.513-1.834C32.608,12.219,33.607,12.587,33.805,13.32"/>
	<path fill="#999999" d="M36.388,16.558c0.145,0.836-0.693,1.68-1.871,1.885c-1.179,0.205-2.252-0.307-2.397-1.142
		c-0.145-0.836,0.693-1.68,1.871-1.885C35.169,15.211,36.242,15.722,36.388,16.558"/>
	<path fill="#999999" d="M37.698,20.59c0.115,0.901-0.822,1.763-2.092,1.925c-1.27,0.162-2.393-0.437-2.508-1.338
		c-0.115-0.901,0.822-1.763,2.092-1.925C36.46,19.091,37.583,19.689,37.698,20.59"/>
	<path fill="#999999" d="M38.879,25.721c-0.003,1.244-1.429,2.249-3.183,2.244c-1.754-0.005-3.174-1.018-3.17-2.262
		c0.003-1.244,1.429-2.249,3.183-2.244C37.464,23.464,38.883,24.477,38.879,25.721"/>
</g>
</svg>
