<?xml version="1.0" encoding="utf-8"?>
<!-- Generator: Adobe Illustrator 17.0.0, SVG Export Plug-In . SVG Version: 6.00 Build 0)  -->
<!DOCTYPE svg PUBLIC "-//W3C//DTD SVG 1.1//EN" "http://www.w3.org/Graphics/SVG/1.1/DTD/svg11.dtd">
<svg version="1.1" id="Capa_1" xmlns="http://www.w3.org/2000/svg" xmlns:xlink="http://www.w3.org/1999/xlink" x="0px" y="0px"
	 width="68.03px" height="68.03px" viewBox="0 0 68.03 68.03" enable-background="new 0 0 68.03 68.03" xml:space="preserve">
<g id="fondo">
</g>
<path fill="#4D4D4D" d="M60.031-0.001H7.999c-4.418,0-8,3.582-8,8v52.032c0,4.418,3.582,8,8,8H8.5l-0.67-12.35l16.45-3.57
	l5.33,15.92h2.58l-2.5-7.91h7.88l-2.31,7.91h2.25l5.91-15.92l16.78,3.57l-0.62,12.35h0.451c4.418,0,8-3.582,8-8V7.999
	C68.031,3.581,64.449-0.001,60.031-0.001z"/>
<polygon fill="#FFFFFF" points="36.68,58.831 30.49,58.831 27.68,52.531 39.39,52.531 "/>
<rect x="32.725" y="30.595" fill="#FFFFFF" width="3.28" height="1.54"/>
<path fill="#FFFFFF" d="M55.405,21.455c-0.15,0-0.29,0.04-0.44,0.08c-0.15-0.73-0.34-1.45-0.57-2.14
	c0.12,0.02,4.84-14.68-20.48-14.85c-3.46-0.02-24.39-0.25-20.81,16.09c-0.15-0.05-0.31-0.08-0.47-0.08c-1.44,0-2.61,1.95-2.61,4.35
	c0,2.4,1.17,4.35,2.61,4.35c0.06,0,0.12-0.02,0.18-0.03c1.78,10.02,10.32,20.16,21.01,20.16c10.48,0,18.92-9.59,21.03-19.33
	c0.17,0.06,0.36,0.1,0.55,0.1c1.44,0,2.61-1.95,2.61-4.35C58.015,23.405,56.845,21.455,55.405,21.455z M33.915,12.215
	c7.49,0,14.76-2.92,17.76,9.34c-1.09,0-2.31,0-2.31,0l0.16-3.04l-13.9,0.03l0.1,1.05l-3.08,0.08l0.11-1.13h-0.42
	c0,0-6.37-0.01-10.62-0.01c-2.36,0-3.33,0-3.74,0.06l-0.42-0.05l0.27,3.01h-1.78C18.065,9.545,25.225,12.215,33.915,12.215z
	 M48.485,20.685l-0.64,6.94h-9.23l-0.64-6.94H48.485z M30.415,20.685l-0.64,6.95h-9.23l-0.64-6.95H30.415z M39.785,44.975
	c-0.88,0.39-1.78,0.7-2.72,0.92v-2.33h-5.71v2.48c-0.82-0.15-1.63-0.37-2.4-0.66c0,0-1.36-4.26,0-5.61c1.91-1.92,9.12-2.11,10.83,0
	C40.915,41.185,39.785,44.975,39.785,44.975z M46.335,40.045c0,0-2.06-2.6-3.47-3.37c-3.73-2.04-13.47-2.37-17,0
	c-1.5,1-3.71,4.12-3.71,4.12c-4.87-4.94-6.61-8.56-6.61-15.34c0-0.4,0.04-0.79,0.06-1.18h2.47l0.51,5.49h13.14l0.6-6.59l3.72-0.08
	l0.62,6.67h13.13l0.38-4.13h2.11C52.215,31.995,49.395,35.385,46.335,40.045z"/>
</svg>
