<?xml version="1.0" encoding="utf-8"?>
<!-- Generator: Adobe Illustrator 17.0.0, SVG Export Plug-In . SVG Version: 6.00 Build 0)  -->
<!DOCTYPE svg PUBLIC "-//W3C//DTD SVG 1.1//EN" "http://www.w3.org/Graphics/SVG/1.1/DTD/svg11.dtd">
<svg version="1.1" xmlns="http://www.w3.org/2000/svg" xmlns:xlink="http://www.w3.org/1999/xlink" x="0px" y="0px" width="68.03px"
	 height="68.03px" viewBox="0 0 68.03 68.03" enable-background="new 0 0 68.03 68.03" xml:space="preserve">
<g id="fondo">
</g>
<g id="Capa_2">
	<g>
		<polygon fill="#4D4D4D" points="37.04,27.621 46.27,27.621 46.91,20.681 36.4,20.681 		"/>
		<path fill="#4D4D4D" d="M27.38,45.381c0.77,0.29,1.58,0.51,2.4,0.66v-2.48h5.71v2.33c0.94-0.22,1.84-0.53,2.72-0.92
			c0,0,1.139-3.79,0-5.2c-1.702-2.106-8.916-1.914-10.83,0C26.026,41.125,27.38,45.381,27.38,45.381z"/>
		<polygon fill="#4D4D4D" points="18.97,27.631 28.2,27.631 28.84,20.681 18.33,20.681 		"/>
		<path fill="#4D4D4D" d="M15.98,18.541l0.42,0.05c0.41-0.06,1.38-0.06,3.74-0.06c4.25,0,10.62,0.01,10.62,0.01h0.42l-0.11,1.13
			l3.08-0.08l-0.1-1.05l13.902-0.022l-0.156,3.032c0,0,1.219,0,2.312,0c-3-12.251-10.278-9.334-17.768-9.334
			c-8.69,0-15.846-2.667-17.87,9.334h1.78L15.98,18.541z"/>
		<path fill="#4D4D4D" d="M60.031-0.001H7.999c-4.418,0-8,3.582-8,8v52.032c0,4.418,3.582,8,8,8H8.5l-0.67-12.35l16.45-3.57
			l5.33,15.92h2.58l-2.5-7.91h7.88l-2.31,7.91h2.25l5.91-15.92l16.78,3.57l-0.62,12.35h0.451c4.418,0,8-3.582,8-8V7.999
			C68.031,3.581,64.449-0.001,60.031-0.001z M36.68,58.831h-6.19l-2.81-6.3h11.71L36.68,58.831z M53.83,30.151
			c-0.19,0-0.38-0.04-0.55-0.1c-2.11,9.74-10.55,19.33-21.03,19.33c-10.69,0-19.23-10.14-21.01-20.16
			c-0.06,0.01-0.12,0.03-0.18,0.03c-1.44,0-2.61-1.95-2.61-4.35c0-2.4,1.17-4.35,2.61-4.35c0.16,0,0.32,0.03,0.47,0.08
			C7.952,4.3,28.88,4.527,32.34,4.55c25.321,0.167,20.6,14.861,20.48,14.841c0.23,0.69,0.42,1.41,0.57,2.14
			c0.15-0.04,0.29-0.08,0.44-0.08c1.44,0,2.61,1.95,2.61,4.35C56.44,28.201,55.27,30.151,53.83,30.151z"/>
		<path fill="#4D4D4D" d="M48.22,29.761H35.09l-0.62-6.67l-3.72,0.08l-0.6,6.59H17.01l-0.51-5.49h-2.47
			c-0.02,0.39-0.06,0.78-0.06,1.18c0,6.78,1.744,10.405,6.612,15.347c0,0,2.216-3.123,3.708-4.123c3.53-2.366,13.27-2.037,17,0
			c1.41,0.77,3.474,3.375,3.474,3.375c3.063-4.667,5.876-8.059,5.946-14.419H48.6L48.22,29.761z M34.43,32.131h-3.28v-1.54h3.28
			V32.131z"/>
	</g>
</g>
</svg>
