<?xml version="1.0" encoding="utf-8"?>
<!-- Generator: Adobe Illustrator 17.0.0, SVG Export Plug-In . SVG Version: 6.00 Build 0)  -->
<!DOCTYPE svg PUBLIC "-//W3C//DTD SVG 1.1//EN" "http://www.w3.org/Graphics/SVG/1.1/DTD/svg11.dtd">
<svg version="1.1" xmlns="http://www.w3.org/2000/svg" xmlns:xlink="http://www.w3.org/1999/xlink" x="0px" y="0px" width="68.03px"
	 height="68.03px" viewBox="0 0 68.03 68.03" enable-background="new 0 0 68.03 68.03" xml:space="preserve">
<g id="fondo">
</g>
<g id="Capa_2">
	<g>
		<path fill="#4D4D4D" d="M68.03,8v52.03c0,4.42-3.58,8-8,8h-1.3L57.8,57.92c0.47-3.5,2.06-8.98,2.3-14.47
			c0.41-9.35,0.95-40.18-25.97-40.18c-2.83,0-6.15,0.35-7.59,0.99c-1.45,0.65-1.7,2.12-2.64,2.44c-0.96,0.33-2.35,0.19-3.2,0.6
			C7.38,13.72,7.83,29.38,7.83,29.38l1.98,32.15l-0.57,6.5H8c-4.42,0-8-3.58-8-8V8c0-4.42,3.58-8,8-8h52.03
			C64.45,0,68.03,3.58,68.03,8z"/>
		<path fill="#4D4D4D" d="M40.21,49.08v7.55h0.03l2.71,1.3l-5.61,10.1h-5.68l-5.57-10.58l2.12-0.54v-8.1
			C20,46.24,13.95,38.92,13.27,30.04l5.63,0.81v3.44h14.76v-2.42h2.6v2.42h14.76v-3.35l4.7-0.72C55.44,37.64,51.6,47.59,40.21,49.08
			z"/>
		<rect x="37.9" y="26.8" fill="#4D4D4D" width="11.48" height="5.85"/>
		<rect x="20.53" y="26.8" fill="#4D4D4D" width="11.48" height="5.85"/>
		<path fill="#4D4D4D" d="M51.01,28.45v-3.28H36.26v3.42h-2.6v-3.42H18.89v3.21l-5.7-0.83c0.05-0.42,0.11-0.83,0.15-1.25
			c5.93-0.41,12.64-5.09,13.16-11.59c7.5,6.22,18.14,6.52,27.02,7.31c1.1,0.52,1.91,2.76,2.14,5.71L51.01,28.45z"/>
	</g>
</g>
</svg>
