<?xml version="1.0" encoding="iso-8859-1"?>
<!-- Generator: Adobe Illustrator 19.0.0, SVG Export Plug-In . SVG Version: 6.00 Build 0)  -->
<svg version="1.1" id="Capa_1" xmlns="http://www.w3.org/2000/svg" xmlns:xlink="http://www.w3.org/1999/xlink" x="0px" y="0px"
	 viewBox="0 0 512 512" style="enable-background:new 0 0 512 512;" xml:space="preserve">
<path style="fill:#57555C;" d="M196,376h-30c-8.291,0-15-6.709-15-15s6.709-15,15-15h30c8.262,0,15-6.724,15-15v-21.606
	c0-8.291,6.709-15,15-15s15,6.709,15,15V331C241,355.814,220.814,376,196,376z"/>
<path style="fill:#CAE8F9;" d="M437,136c-8.401,0-15,6.599-15,15v120c0,8.401,6.599,15,15,15c41.4,0,75-33.6,75-75
	S478.4,136,437,136z"/>
<path style="fill:#B7E0F6;" d="M512,211c0,41.4-33.6,75-75,75c-8.401,0-15-6.599-15-15v-60H512z"/>
<path style="fill:#E61E14;" d="M136,496c-24.814,0-45-20.186-45-45V301c0-8.291,6.709-15,15-15h60c8.291,0,15,6.709,15,15v150
	C181,475.814,160.814,496,136,496z"/>
<path style="fill:none;stroke:#000000;stroke-width:30;stroke-linecap:round;stroke-linejoin:round;stroke-miterlimit:10;" d="
	M377,66.4c7.5-3.9,10.2-4.8,7.2-0.9"/>
<path style="fill:#FD3C65;" d="M181,106H75c-41.4,0-75,33.6-75,75v60c0,41.4,33.6,75,75,75h106l30-40.201V134.801L181,106z"/>
<path style="fill:#FD003A;" d="M0,211h211v64.799L181,316H75c-41.4,0-75-33.6-75-75V211z"/>
<path style="fill:#CAE8F9;" d="M370.401,52.899C317.901,80.2,258.402,106,196.901,106H181v210h15.901
	c65.398,0,126.999,30,173.5,53.101c11.1,4.799,21.599-3.6,21.599-13.5V66.4C392,55.6,380.3,48.401,370.401,52.899z"/>
<path style="fill:#FD3C65;" d="M407,16c-24.902,0-45,20.099-45,45v300c0,24.901,20.098,45,45,45s45-20.099,45-45V61
	C452,36.099,431.902,16,407,16z"/>
<path style="fill:#B7E0F6;" d="M392,211v144.6c0,9.901-10.499,18.3-21.599,13.5C323.899,346,262.299,316,196.901,316H181V211H392z"
	/>
<path style="fill:#FD003A;" d="M452,211v150c0,24.901-20.098,45-45,45s-45-20.099-45-45V211H452z"/>
<path style="fill:#CAE8F9;" d="M75,196c-8.145,0-14.824-6.519-15-14.707c-0.146-8.276,6.416-15.132,14.707-15.293l61-1.187
	c7.764,0.146,15.117,6.416,15.293,14.707c0.146,8.276-6.416,15.132-14.707,15.293l-61,1.187C75.205,196,75.088,196,75,196z"/>
<path style="fill:#B7E0F6;" d="M75,256c-8.145,0-14.824-6.519-15-14.707c-0.146-8.276,6.416-15.132,14.707-15.293l61-1.187
	c7.764-0.85,15.117,6.431,15.293,14.707c0.146,8.276-6.416,15.132-14.707,15.293l-61,1.187C75.205,256,75.088,256,75,256z"/>
<g>
</g>
<g>
</g>
<g>
</g>
<g>
</g>
<g>
</g>
<g>
</g>
<g>
</g>
<g>
</g>
<g>
</g>
<g>
</g>
<g>
</g>
<g>
</g>
<g>
</g>
<g>
</g>
<g>
</g>
</svg>
