<?xml version="1.0" encoding="utf-8"?>
<!-- Generator: Adobe Illustrator 17.0.0, SVG Export Plug-In . SVG Version: 6.00 Build 0)  -->
<!DOCTYPE svg PUBLIC "-//W3C//DTD SVG 1.1//EN" "http://www.w3.org/Graphics/SVG/1.1/DTD/svg11.dtd">
<svg version="1.1" id="Capa_1" xmlns="http://www.w3.org/2000/svg" xmlns:xlink="http://www.w3.org/1999/xlink" x="0px" y="0px"
	 width="200px" height="200px" viewBox="2183.855 1786.73 200 200" enable-background="new 2183.855 1786.73 200 200"
	 xml:space="preserve">
<g>
	<g>
		<path fill="#3AAA35" d="M2353.847,1928.511c4.87,0,8.832-3.946,8.832-8.827c0-4.886-3.946-8.832-8.832-8.832
			c-4.892,0-8.843,3.94-8.843,8.832C2345.004,1924.559,2348.955,1928.511,2353.847,1928.511z"/>
		<circle fill="#3AAA35" cx="2305.989" cy="1919.679" r="8.827"/>
		<circle fill="#3AAA35" cx="2259.796" cy="1918.841" r="8.827"/>
		<circle fill="#3AAA35" cx="2213.831" cy="1918.841" r="8.827"/>
		<circle fill="#3AAA35" cx="2352.658" cy="1947.283" r="12.708"/>
		<polygon fill="#3AAA35" points="2368.987,1965.385 2358.75,1961.893 2354.058,1967.52 2349.231,1961.893 2337.993,1965.385 
			2337.993,1986.384 2369.7,1986.384 		"/>
		<circle fill="#3AAA35" cx="2305.989" cy="1947.283" r="12.708"/>
		<polygon fill="#3AAA35" points="2310.892,1961.893 2306.211,1967.52 2301.373,1961.893 2290.147,1965.385 2290.147,1986.384 
			2321.826,1986.384 2321.124,1965.385 		"/>
		<circle fill="#3AAA35" cx="2328.345" cy="1929.559" r="9.286"/>
		<path fill="#3AAA35" d="M2337.637,1940.245h-2.265h-3.449l-3.411,4.119l-3.535-4.119h-3.643h-2.038
			c0.94,2.167,1.47,4.546,1.47,7.043c0,4.076-1.443,7.827-3.773,10.881h22.939l-0.011-0.568c-1.654-3.13-2.816-6.519-2.816-10.302
			c0-2.497,0.676-4.805,1.438-7.048h-0.908V1940.245z"/>
		<circle fill="#3AAA35" cx="2260.521" cy="1947.645" r="12.708"/>
		<polygon fill="#3AAA35" points="2265.429,1962.25 2260.731,1967.866 2255.894,1962.25 2244.684,1965.731 2244.684,1986.73 
			2276.363,1986.73 2275.661,1965.731 		"/>
		<circle fill="#3AAA35" cx="2282.882" cy="1929.911" r="9.297"/>
		<path fill="#3AAA35" d="M2294.471,1957.953c-1.654-3.124-2.811-6.524-2.811-10.302c0-2.492,0.67-4.805,1.427-7.054h-0.903h-2.265
			h-3.448l-3.427,4.119l-3.535-4.119h-3.638h-2.038c0.946,2.178,1.486,4.551,1.486,7.043c0,4.086-1.443,7.821-3.8,10.891h22.961
			L2294.471,1957.953z"/>
		<path fill="#3AAA35" d="M2213.852,1960.347c7.005,0,12.697-5.703,12.697-12.713s-5.692-12.708-12.697-12.708
			c-7.032,0-12.724,5.697-12.724,12.708S2206.82,1960.347,2213.852,1960.347z"/>
		<polygon fill="#3AAA35" points="2218.755,1962.25 2214.068,1967.866 2209.22,1962.25 2198.01,1965.731 2198.01,1986.73 
			2229.695,1986.73 2228.987,1965.731 		"/>
		<circle fill="#3AAA35" cx="2236.214" cy="1929.911" r="9.297"/>
		<path fill="#3AAA35" d="M2247.813,1958.526l-0.011-0.573c-1.654-3.124-2.816-6.524-2.816-10.302c0-2.492,0.676-4.805,1.427-7.054
			h-0.897h-2.281h-3.432l-3.427,4.119l-3.541-4.119h-3.638h-2.021c0.935,2.178,1.465,4.551,1.465,7.043
			c0,4.086-1.432,7.821-3.789,10.891h22.961V1958.526z"/>
	</g>
	<g>
		<path fill="#3AAA35" d="M2208.23,1845.819c10.633,0,19.244-8.611,19.244-19.233c0-10.621-8.611-19.233-19.244-19.233
			c-10.604,0-19.221,8.611-19.221,19.233C2189.01,1837.208,2197.627,1845.819,2208.23,1845.819z"/>
		<path fill="#3AAA35" d="M2191.107,1891.456h34.771l1.684-32.767l26.993-3.56c1.41,1.189,3.187,1.934,5.139,1.934
			c4.323,0,7.83-3.507,8.209-7.988l10.528,5.139v-39.881l-28.065,13.832h-9.741v12.13h9.31l3.828,1.87
			c-0.973,1.055-1.672,2.371-2.045,3.834l-24.132,2.715h-12.352l-7.33,8.506l-7.085-8.506l-15.504,3.758l-1.072,33.699h6.595
			L2191.107,1891.456z"/>
		<path fill="#3AAA35" d="M2286.5,1846.955l2.663,2.657c3.146-3.56,5.133-8.192,5.133-13.319c0-5.238-2.057-9.974-5.337-13.569
			l-2.663,2.657c2.604,2.913,4.247,6.712,4.247,10.913C2290.532,1840.383,2288.977,1844.089,2286.5,1846.955z"/>
		<path fill="#3AAA35" d="M2292.21,1852.659l2.651,2.663c4.609-5.022,7.44-11.688,7.44-19.023c0-7.452-2.925-14.216-7.656-19.262
			l-2.657,2.663c4.055,4.364,6.56,10.19,6.56,16.605C2298.549,1842.592,2296.131,1848.33,2292.21,1852.659z"/>
		<path fill="#3AAA35" d="M2297.25,1857.711l2.651,2.657c5.902-6.316,9.543-14.77,9.543-24.068c0-9.421-3.729-17.968-9.759-24.307
			l-2.651,2.657c5.354,5.657,8.646,13.272,8.646,21.65C2305.698,1844.573,2302.476,1852.077,2297.25,1857.711z"/>
	</g>
	<g>
		<path fill="#3AAA35" d="M2354.697,1844.256c15.865,0,28.769-12.897,28.769-28.769c0-15.859-12.897-28.757-28.769-28.757
			c-15.859,0-28.769,12.897-28.769,28.763C2325.928,1831.359,2338.838,1844.256,2354.697,1844.256z M2354.697,1789.323
			c14.441,0,26.17,11.735,26.17,26.17c0,14.435-11.729,26.17-26.17,26.17c-14.435,0-26.164-11.741-26.164-26.17
			S2340.262,1789.323,2354.697,1789.323z"/>
		<path fill="#3AAA35" d="M2345.824,1796.572l-1.056-2.112l-1.162,0.587l1.075,2.118
			C2345.049,1796.947,2345.436,1796.753,2345.824,1796.572z"/>
		<path fill="#3AAA35" d="M2333.682,1815.924c0-0.437,0.044-0.869,0.075-1.293h-3v2.599h2.993
			C2333.72,1816.805,2333.682,1816.368,2333.682,1815.924z"/>
		<path fill="#3AAA35" d="M2356.528,1794.447v-2.981h-2.599v2.987c0.425-0.025,0.862-0.069,1.3-0.069
			C2355.666,1794.385,2356.097,1794.422,2356.528,1794.447z"/>
		<path fill="#3AAA35" d="M2377.33,1806.07l-0.594-1.156l-2.356,1.193c0.194,0.387,0.387,0.769,0.575,1.175L2377.33,1806.07z"/>
		<path fill="#3AAA35" d="M2369.025,1796.372l-1.1-0.712l-1.293,2.018c0.369,0.231,0.731,0.469,1.081,0.719L2369.025,1796.372z"/>
		<path fill="#3AAA35" d="M2337.575,1803.602l-2.112-1.443l-0.744,1.075l2.143,1.469
			C2337.101,1804.327,2337.325,1803.952,2337.575,1803.602z"/>
		<path fill="#3AAA35" d="M2364.095,1835.552l1.587,3.162l1.175-0.6l-1.587-3.124
			C2364.883,1835.189,2364.489,1835.364,2364.095,1835.552z"/>
		<path fill="#3AAA35" d="M2375.73,1829.94l-2.718-1.875c-0.244,0.369-0.512,0.694-0.781,1.05l2.75,1.9L2375.73,1829.94z"/>
		<path fill="#3AAA35" d="M2376.774,1815.924c0,0.444-0.05,0.881-0.075,1.306h2.993v-2.599h-2.993
			C2376.724,1815.056,2376.774,1815.487,2376.774,1815.924z"/>
		<path fill="#3AAA35" d="M2353.928,1837.401v2.993h2.599v-2.993c-0.431,0.025-0.862,0.075-1.3,0.075
			C2354.791,1837.476,2354.353,1837.426,2353.928,1837.401z"/>
		<path fill="#3AAA35" d="M2344.424,1834.546c-0.387-0.219-0.756-0.431-1.118-0.669l-1.881,2.918l1.1,0.7L2344.424,1834.546z"/>
		<path fill="#3AAA35" d="M2336.001,1825.629l-2.874,1.456l0.594,1.169l2.912-1.487
			C2336.413,1826.397,2336.195,1826.01,2336.001,1825.629z"/>
		<polygon fill="#3AAA35" points="2354.316,1817.212 2368.307,1817.212 2368.307,1814.643 2356.14,1814.643 2356.14,1796.722 
			2354.31,1796.722 2354.31,1814.643 2354.31,1815.493 2354.31,1816.643 2343.462,1828.553 2343.749,1828.809 		"/>
	</g>
</g>
</svg>
