<?xml version="1.0" encoding="utf-8"?>
<!-- Generator: Adobe Illustrator 17.0.0, SVG Export Plug-In . SVG Version: 6.00 Build 0)  -->
<!DOCTYPE svg PUBLIC "-//W3C//DTD SVG 1.1//EN" "http://www.w3.org/Graphics/SVG/1.1/DTD/svg11.dtd">
<svg version="1.1" id="Capa_1" xmlns="http://www.w3.org/2000/svg" xmlns:xlink="http://www.w3.org/1999/xlink" x="0px" y="0px"
	 width="200px" height="200px" viewBox="3052.244 1786.73 200 200" enable-background="new 3052.244 1786.73 200 200"
	 xml:space="preserve">
<path fill="#F99927" d="M3252.244,1804.038c0,9.559-7.749,17.308-17.308,17.308h-165.384c-9.559,0-17.308-7.749-17.308-17.308l0,0
	c0-9.559,7.749-17.308,17.308-17.308h165.384C3244.495,1786.73,3252.244,1794.479,3252.244,1804.038L3252.244,1804.038z"/>
<path fill="#F99927" d="M3252.244,1969.422c0,9.559-7.749,17.308-17.308,17.308h-165.384c-9.559,0-17.308-7.749-17.308-17.308l0,0
	c0-9.559,7.749-17.308,17.308-17.308h165.384C3244.495,1952.115,3252.244,1959.864,3252.244,1969.422L3252.244,1969.422z"/>
<path fill="#F99927" d="M3252.244,1886.73c0,9.559-7.749,17.308-17.308,17.308h-165.384c-9.559,0-17.308-7.749-17.308-17.308l0,0
	c0-9.559,7.749-17.308,17.308-17.308h165.384C3244.495,1869.422,3252.244,1877.171,3252.244,1886.73L3252.244,1886.73z"/>
</svg>
